<?xml version="1.0" encoding="UTF-8" standalone="no"?>
<svg
   xmlns:dc="http://purl.org/dc/elements/1.1/"
   xmlns:cc="http://creativecommons.org/ns#"
   xmlns:rdf="http://www.w3.org/1999/02/22-rdf-syntax-ns#"
   xmlns:svg="http://www.w3.org/2000/svg"
   xmlns="http://www.w3.org/2000/svg"
   id="svg8"
   version="1.1"
   viewBox="0 0 52.916664 52.916668"
   height="200"
   width="200">
  <defs
     id="defs2" />
  <metadata
     id="metadata5">
    <rdf:RDF>
      <cc:Work
         rdf:about="">
        <dc:format>image/svg+xml</dc:format>
        <dc:type
           rdf:resource="http://purl.org/dc/dcmitype/StillImage" />
        <dc:title></dc:title>
      </cc:Work>
    </rdf:RDF>
  </metadata>
  <g
     transform="translate(0,-244.08331)"
     id="layer1">
    <rect
       ry="3.305301"
       rx="3.9149625"
       y="248.44896"
       x="5.1593747"
       height="41.936455"
       width="41.936455"
       id="rect1558"
       style="opacity:1;fill:#e9c6af;fill-opacity:1;stroke:none;stroke-width:0.026;stroke-linecap:round;stroke-linejoin:miter;stroke-miterlimit:4;stroke-dasharray:none;stroke-dashoffset:0;stroke-opacity:1;paint-order:markers fill stroke" />
    <text
       id="text897"
       y="265.75616"
       x="24.60216"
       style="font-style:normal;font-weight:normal;font-size:10.58333302px;line-height:1.25;font-family:sans-serif;letter-spacing:0px;word-spacing:0px;fill:#000000;fill-opacity:1;stroke:none;stroke-width:0.26458332"
       xml:space="preserve"><tspan
         style="stroke-width:0.26458332"
         y="275.11993"
         x="24.60216"
         id="tspan895" /></text>
    <path
       id="rect1568"
       d="m 6.5894312,249.17359 c -0.932394,0.60309 -1.534273,1.55039 -1.534273,2.62309 v 35.32601 c 0,1.83114 1.746117,3.30523 3.915007,3.30523 H 43.076608 c 1.26134,0 2.376742,-0.50055 3.091802,-1.27796 z"
       style="opacity:1;fill:#d38d5f;fill-opacity:1;stroke:none;stroke-width:0.026;stroke-linecap:round;stroke-linejoin:miter;stroke-miterlimit:4;stroke-dasharray:none;stroke-dashoffset:0;stroke-opacity:1;paint-order:markers fill stroke" />
    <circle
       r="11.552725"
       cy="273.32471"
       cx="30.664734"
       id="path907"
       style="opacity:1;fill:#333333;fill-opacity:1;stroke:none;stroke-width:0.02599999;stroke-linecap:round;stroke-linejoin:miter;stroke-miterlimit:4;stroke-dasharray:none;stroke-dashoffset:0;stroke-opacity:1;paint-order:markers fill stroke" />
    <rect
       ry="1.9393878"
       rx="2.2971065"
       y="261.54364"
       x="8.9929285"
       height="23.198996"
       width="8.4189901"
       id="rect899"
       style="opacity:1;fill:#333333;fill-opacity:1;stroke:none;stroke-width:0.026;stroke-linecap:round;stroke-linejoin:miter;stroke-miterlimit:4;stroke-dasharray:none;stroke-dashoffset:0;stroke-opacity:1;paint-order:markers fill stroke" />
    <circle
       r="4.2165465"
       cy="256.09778"
       cx="13.202423"
       id="path901"
       style="opacity:1;fill:#d45500;fill-opacity:1;stroke:none;stroke-width:0.026;stroke-linecap:round;stroke-linejoin:miter;stroke-miterlimit:4;stroke-dasharray:none;stroke-dashoffset:0;stroke-opacity:1;paint-order:markers fill stroke" />
    <path
       id="rect1532"
       d="m 14.879595,258.67326 c -0.379315,0.38585 -0.422384,0.95429 -0.09661,1.27453 l 5.645368,5.54965 -1.164575,1.16902 3.866914,1.41202 3.866761,1.41217 -1.438836,-3.84875 -1.43899,-3.84891 -1.164748,1.16885 -5.662601,-5.56659 c -0.325769,-0.32024 -0.893385,-0.26746 -1.272699,0.11839 z"
       style="opacity:1;fill:#d45500;fill-opacity:1;stroke:none;stroke-width:0.026;stroke-linecap:round;stroke-linejoin:miter;stroke-miterlimit:4;stroke-dasharray:none;stroke-dashoffset:0;stroke-opacity:1;paint-order:markers fill stroke" />
    <circle
       r="4.1627226"
       cy="273.32471"
       cx="30.664734"
       id="path911"
       style="opacity:1;fill:#d4aa00;fill-opacity:1;stroke:none;stroke-width:0.026;stroke-linecap:round;stroke-linejoin:miter;stroke-miterlimit:4;stroke-dasharray:none;stroke-dashoffset:0;stroke-opacity:1;paint-order:markers fill stroke" />
    <path
       style="opacity:1;fill:#d4aa00;fill-opacity:1;stroke:none;stroke-width:0.026;stroke-linecap:round;stroke-linejoin:miter;stroke-miterlimit:4;stroke-dasharray:none;stroke-dashoffset:0;stroke-opacity:1;paint-order:markers fill stroke"
       d="m 32.209803,276.40034 c -0.379315,0.38585 -0.422384,0.95429 -0.09661,1.27453 l 5.645368,5.54965 -1.164575,1.16902 3.866914,1.41202 3.866761,1.41217 -1.438836,-3.84875 -1.43899,-3.84891 -1.164748,1.16885 -5.662601,-5.56659 c -0.325769,-0.32024 -0.893385,-0.26746 -1.272699,0.11839 z"
       id="path1552" />
    <path
       id="circle1583"
       d="m 10.339938,252.94737 a 4.2165465,4.2165465 0 0 0 -1.4200694,3.15019 4.2165465,4.2165465 0 0 0 4.2162814,4.2168 4.2165465,4.2165465 0 0 0 1.620054,-0.32814 l 5.60586,5.51129 -1.16427,1.16892 3.866949,1.4118 3.86643,1.41231 -0.03514,-0.0946 z"
       style="opacity:1;fill:#b34800;fill-opacity:1;stroke:none;stroke-width:0.026;stroke-linecap:round;stroke-linejoin:miter;stroke-miterlimit:4;stroke-dasharray:none;stroke-dashoffset:0;stroke-opacity:1;paint-order:markers fill stroke" />
    <path
       id="circle1595"
       d="m 27.647036,270.46096 a 4.1627226,4.1627226 0 0 0 -1.144633,2.86391 4.1627226,4.1627226 0 0 0 4.162536,4.16254 4.1627226,4.1627226 0 0 0 1.249019,-0.19689 c 0.02828,0.14445 0.09184,0.27867 0.199472,0.38447 l 5.645131,5.54953 -1.16427,1.16893 3.866949,1.41179 3.866431,1.41232 -0.07597,-0.2036 z"
       style="opacity:1;fill:#b38f00;fill-opacity:1;stroke:none;stroke-width:0.026;stroke-linecap:round;stroke-linejoin:miter;stroke-miterlimit:4;stroke-dasharray:none;stroke-dashoffset:0;stroke-opacity:1;paint-order:markers fill stroke" />
  </g>
</svg>
